<svg xmlns="http://www.w3.org/2000/svg">
  <symbol id="avatar" viewBox="0 0 412.333 412.333">
    <g>
      <path d="M206.167,205.333c56.61,0,102.667-46.056,102.667-102.667S262.777,0,206.167,0S103.5,46.056,103.5,102.667
S149.556,205.333,206.167,205.333z M206.167,40c34.554,0,62.667,28.112,62.667,62.667s-28.112,62.667-62.667,62.667
S143.5,137.221,143.5,102.667S171.612,40,206.167,40z"/>
      <path d="M206.167,223.333c-93.187,0-169,75.813-169,169v20h338v-20C375.167,299.146,299.354,223.333,206.167,223.333z
M78.714,372.333c9.637-61.671,63.12-109,127.452-109s117.815,47.329,127.452,109H78.714z"/>
    </g>
  </symbol>

  <symbol id="prev-btn" viewBox="0 0 404.375 404.375">
    <path d="M108.669,404.375c-4.18,0-7.837-1.567-10.971-4.702c-6.269-6.269-6.269-16.196,0-21.943
	  l176.065-175.543L97.698,26.645c-6.269-6.269-6.269-16.196,0-21.943c6.269-6.269,16.196-6.269,21.943,0l187.037,186.514
	  c3.135,3.135,4.702,6.792,4.702,10.971c0,4.18-1.567,8.359-4.702,10.971L119.641,399.673
	  C116.506,402.808,112.849,404.375,108.669,404.375z"/>
  </symbol>

  <symbol id="albums" viewBox="0 0 512 512">
    <g>
      <g>
        <path d="M446.575,0H65.425C29.349,0,0,29.35,0,65.426v381.149C0,482.65,29.349,512,65.425,512h381.15
          C482.651,512,512,482.65,512,446.574V65.426C512,29.35,482.651,0,446.575,0z M481.842,446.575
          c0,19.447-15.821,35.267-35.267,35.267H65.425c-19.447,0-35.268-15.821-35.268-35.267v-55.007l99.255-84.451
          c3.622-3.082,8.906-3.111,12.562-0.075l62.174,51.628c5.995,4.977,14.795,4.569,20.304-0.946L372.181,209.77
          c2.67-2.675,5.783-2.935,7.408-2.852c1.62,0.083,4.695,0.661,7.078,3.596l95.176,117.19V446.575z M481.842,279.865l-71.766-88.366
          c-7.117-8.764-17.666-14.122-28.942-14.701c-11.268-0.57-22.317,3.672-30.294,11.662L212.832,326.681l-51.59-42.839
          c-14.959-12.422-36.563-12.293-51.373,0.308l-79.712,67.822V65.426c0-19.447,15.821-35.268,35.268-35.268h381.15
          c19.447,0,35.267,15.821,35.267,35.268V279.865z"/>
      </g>
    </g>
    <g>
      <g>
        <path d="M161.174,62.995c-40.095,0-72.713,32.62-72.713,72.713c0,40.094,32.619,72.713,72.713,72.713s72.713-32.619,72.713-72.713
          S201.269,62.995,161.174,62.995z M161.174,178.264c-23.466,0-42.556-19.091-42.556-42.556c0-23.466,19.09-42.556,42.556-42.556
          c23.466,0,42.556,19.091,42.556,42.556S184.64,178.264,161.174,178.264z"/>
      </g>
    </g>
  </symbol>
</svg>